<svg xmlns="http://www.w3.org/2000/svg" viewBox="0 0 800 450" fill="none">
  <rect width="800" height="450" fill="#0f172a"/>
  <rect x="24" y="24" width="752" height="402" rx="12" fill="#1e293b" stroke="#334155"/>
  <circle cx="52" cy="52" r="6" fill="#ef4444"/><circle cx="72" cy="52" r="6" fill="#eab308"/><circle cx="92" cy="52" r="6" fill="#22c55e"/>
  <rect x="120" y="44" width="200" height="16" rx="4" fill="#334155"/>
  <rect x="40" y="80" width="360" height="320" rx="8" fill="#0f172a" stroke="#475569"/>
  <text x="56" y="110" fill="#94a3b8" font-family="monospace" font-size="13">async function main() {</text>
  <text x="72" y="132" fill="#38bdf8" font-family="monospace" font-size="13">await fetch('/api')</text>
  <text x="56" y="154" fill="#94a3b8" font-family="monospace" font-size="13">}</text>
  <rect x="420" y="80" width="340" height="320" rx="8" fill="#0f172a" stroke="#475569"/>
  <text x="440" y="108" fill="#e2e8f0" font-family="system-ui" font-size="14" font-weight="600">Call Stack</text>
  <rect x="440" y="120" width="120" height="28" rx="4" fill="#3b82f6"/>
  <text x="452" y="139" fill="white" font-family="monospace" font-size="11">main()</text>
  <text x="440" y="180" fill="#e2e8f0" font-family="system-ui" font-size="14" font-weight="600">Event Loop</text>
  <rect x="440" y="192" width="280" height="8" rx="4" fill="#334155"/>
  <rect x="440" y="192" width="140" height="8" rx="4" fill="#8b5cf6"/>
  <text x="360" y="430" fill="#64748b" font-family="system-ui" font-size="12">ExecLens js-exec-lens.vercel.app</text>
</svg>
